<mxfile host="app.diagrams.net" agent="Mozilla/5.0 (Windows NT 10.0; Win64; x64) AppleWebKit/537.36 (KHTML, like Gecko) Chrome/138.0.0.0 Safari/537.36" version="27.0.8">
  <diagram id="C5RBs43oDa-KdzZeNtuy" name="Page-1">
    <mxGraphModel dx="521" dy="555" grid="1" gridSize="10" guides="1" tooltips="1" connect="1" arrows="1" fold="1" page="1" pageScale="1" pageWidth="827" pageHeight="1169" math="0" shadow="0">
      <root>
        <mxCell id="WIyWlLk6GJQsqaUBKTNV-0" />
        <mxCell id="WIyWlLk6GJQsqaUBKTNV-1" parent="WIyWlLk6GJQsqaUBKTNV-0" />
        <mxCell id="JPEAjt1dKs-RVORxx70d-140" style="fontStyle=1;strokeColor=#003366;strokeWidth=1;html=1;entryX=0.5;entryY=0;entryDx=0;entryDy=0;entryPerimeter=0;" edge="1" target="JPEAjt1dKs-RVORxx70d-142" parent="WIyWlLk6GJQsqaUBKTNV-1">
          <mxGeometry relative="1" as="geometry">
            <mxPoint x="1505.01" y="120" as="sourcePoint" />
            <mxPoint x="1505.01" y="160" as="targetPoint" />
          </mxGeometry>
        </mxCell>
        <mxCell id="JPEAjt1dKs-RVORxx70d-141" style="fontStyle=1;strokeColor=#003366;strokeWidth=1;html=1;exitX=0.5;exitY=1;exitDx=0;exitDy=0;exitPerimeter=0;entryX=0.5;entryY=0;entryDx=0;entryDy=0;entryPerimeter=0;" edge="1" source="JPEAjt1dKs-RVORxx70d-142" target="JPEAjt1dKs-RVORxx70d-164" parent="WIyWlLk6GJQsqaUBKTNV-1">
          <mxGeometry relative="1" as="geometry">
            <mxPoint x="1505.01" y="240" as="sourcePoint" />
            <mxPoint x="1505.01" y="250" as="targetPoint" />
          </mxGeometry>
        </mxCell>
        <mxCell id="JPEAjt1dKs-RVORxx70d-142" value="Neue Idee" style="strokeWidth=2;html=1;shape=mxgraph.flowchart.terminator;whiteSpace=wrap;" vertex="1" parent="WIyWlLk6GJQsqaUBKTNV-1">
          <mxGeometry x="1455.01" y="160" width="100" height="60" as="geometry" />
        </mxCell>
        <mxCell id="JPEAjt1dKs-RVORxx70d-143" value="" style="ellipse;fillColor=strokeColor;html=1;" vertex="1" parent="WIyWlLk6GJQsqaUBKTNV-1">
          <mxGeometry x="1490.01" y="90" width="30" height="30" as="geometry" />
        </mxCell>
        <mxCell id="JPEAjt1dKs-RVORxx70d-226" value="" style="edgeStyle=orthogonalEdgeStyle;rounded=0;orthogonalLoop=1;jettySize=auto;html=1;" edge="1" parent="WIyWlLk6GJQsqaUBKTNV-1" source="JPEAjt1dKs-RVORxx70d-145" target="JPEAjt1dKs-RVORxx70d-155">
          <mxGeometry relative="1" as="geometry" />
        </mxCell>
        <mxCell id="JPEAjt1dKs-RVORxx70d-145" value="Ideen im Team präziser definieren" style="strokeWidth=2;html=1;shape=mxgraph.flowchart.terminator;whiteSpace=wrap;" vertex="1" parent="WIyWlLk6GJQsqaUBKTNV-1">
          <mxGeometry x="1425.01" y="450" width="160" height="60" as="geometry" />
        </mxCell>
        <mxCell id="JPEAjt1dKs-RVORxx70d-227" value="" style="edgeStyle=orthogonalEdgeStyle;rounded=0;orthogonalLoop=1;jettySize=auto;html=1;" edge="1" parent="WIyWlLk6GJQsqaUBKTNV-1" source="JPEAjt1dKs-RVORxx70d-155" target="JPEAjt1dKs-RVORxx70d-171">
          <mxGeometry relative="1" as="geometry" />
        </mxCell>
        <mxCell id="JPEAjt1dKs-RVORxx70d-155" value="Tasks erstellen" style="strokeWidth=2;html=1;shape=mxgraph.flowchart.terminator;whiteSpace=wrap;" vertex="1" parent="WIyWlLk6GJQsqaUBKTNV-1">
          <mxGeometry x="1447.49" y="550" width="114.99" height="40" as="geometry" />
        </mxCell>
        <mxCell id="JPEAjt1dKs-RVORxx70d-157" value="Code implementieren /&amp;nbsp;&lt;div&gt;Prototyp ausarbeiten&lt;/div&gt;" style="strokeWidth=2;html=1;shape=mxgraph.flowchart.terminator;whiteSpace=wrap;" vertex="1" parent="WIyWlLk6GJQsqaUBKTNV-1">
          <mxGeometry x="1425.48" y="1275" width="160" height="60" as="geometry" />
        </mxCell>
        <mxCell id="JPEAjt1dKs-RVORxx70d-158" value="Unit-Test ausführen" style="strokeWidth=2;html=1;shape=mxgraph.flowchart.terminator;whiteSpace=wrap;" vertex="1" parent="WIyWlLk6GJQsqaUBKTNV-1">
          <mxGeometry x="1425.48" y="1375" width="160" height="35" as="geometry" />
        </mxCell>
        <mxCell id="JPEAjt1dKs-RVORxx70d-159" value="Test bestanden?" style="shape=hexagon;perimeter=hexagonPerimeter2;whiteSpace=wrap;html=1;fixedSize=1;strokeWidth=2" vertex="1" parent="WIyWlLk6GJQsqaUBKTNV-1">
          <mxGeometry x="1445.48" y="1454" width="120" height="35" as="geometry" />
        </mxCell>
        <mxCell id="JPEAjt1dKs-RVORxx70d-160" value="Nein" style="text;html=1;align=center;verticalAlign=middle;resizable=0;points=[];autosize=1;strokeColor=none;fillColor=none;" vertex="1" parent="WIyWlLk6GJQsqaUBKTNV-1">
          <mxGeometry x="1652.49" y="1375" width="50" height="30" as="geometry" />
        </mxCell>
        <mxCell id="JPEAjt1dKs-RVORxx70d-161" value="Ja" style="text;strokeColor=none;align=center;fillColor=none;html=1;verticalAlign=middle;whiteSpace=wrap;rounded=0;" vertex="1" parent="WIyWlLk6GJQsqaUBKTNV-1">
          <mxGeometry x="1485.48" y="1497" width="60" height="30" as="geometry" />
        </mxCell>
        <mxCell id="JPEAjt1dKs-RVORxx70d-163" value="" style="ellipse;html=1;shape=endState;fillColor=strokeColor;" vertex="1" parent="WIyWlLk6GJQsqaUBKTNV-1">
          <mxGeometry x="1490.47" y="1983" width="30" height="30" as="geometry" />
        </mxCell>
        <mxCell id="JPEAjt1dKs-RVORxx70d-224" value="" style="edgeStyle=orthogonalEdgeStyle;rounded=0;orthogonalLoop=1;jettySize=auto;html=1;" edge="1" parent="WIyWlLk6GJQsqaUBKTNV-1" source="JPEAjt1dKs-RVORxx70d-164" target="JPEAjt1dKs-RVORxx70d-213">
          <mxGeometry relative="1" as="geometry" />
        </mxCell>
        <mxCell id="JPEAjt1dKs-RVORxx70d-164" value="Idee in der Gruppe besprechen" style="strokeWidth=2;html=1;shape=mxgraph.flowchart.terminator;whiteSpace=wrap;" vertex="1" parent="WIyWlLk6GJQsqaUBKTNV-1">
          <mxGeometry x="1399.0800000000002" y="260" width="211.86" height="60" as="geometry" />
        </mxCell>
        <mxCell id="JPEAjt1dKs-RVORxx70d-231" style="edgeStyle=orthogonalEdgeStyle;rounded=0;orthogonalLoop=1;jettySize=auto;html=1;exitX=0.5;exitY=1;exitDx=0;exitDy=0;" edge="1" parent="WIyWlLk6GJQsqaUBKTNV-1" source="JPEAjt1dKs-RVORxx70d-171" target="JPEAjt1dKs-RVORxx70d-230">
          <mxGeometry relative="1" as="geometry" />
        </mxCell>
        <mxCell id="JPEAjt1dKs-RVORxx70d-171" value="Sind die Tasks in einem Tag implementierbar?" style="shape=hexagon;perimeter=hexagonPerimeter2;whiteSpace=wrap;html=1;fixedSize=1;strokeWidth=2" vertex="1" parent="WIyWlLk6GJQsqaUBKTNV-1">
          <mxGeometry x="1407.5" y="635" width="194.98" height="40" as="geometry" />
        </mxCell>
        <mxCell id="JPEAjt1dKs-RVORxx70d-172" value="Task in Sub-Task aufteilen" style="strokeWidth=2;html=1;shape=mxgraph.flowchart.terminator;whiteSpace=wrap;" vertex="1" parent="WIyWlLk6GJQsqaUBKTNV-1">
          <mxGeometry x="1204.98" y="635" width="150" height="40" as="geometry" />
        </mxCell>
        <mxCell id="JPEAjt1dKs-RVORxx70d-173" style="edgeStyle=orthogonalEdgeStyle;rounded=0;orthogonalLoop=1;jettySize=auto;html=1;exitX=0;exitY=0.5;exitDx=0;exitDy=0;entryX=1;entryY=0.5;entryDx=0;entryDy=0;entryPerimeter=0;" edge="1" source="JPEAjt1dKs-RVORxx70d-171" target="JPEAjt1dKs-RVORxx70d-172" parent="WIyWlLk6GJQsqaUBKTNV-1">
          <mxGeometry relative="1" as="geometry" />
        </mxCell>
        <mxCell id="JPEAjt1dKs-RVORxx70d-175" value="Nein&lt;div&gt;&lt;br&gt;&lt;/div&gt;" style="text;html=1;align=center;verticalAlign=middle;resizable=0;points=[];autosize=1;strokeColor=none;fillColor=none;" vertex="1" parent="WIyWlLk6GJQsqaUBKTNV-1">
          <mxGeometry x="1357.5" y="650" width="50" height="40" as="geometry" />
        </mxCell>
        <mxCell id="JPEAjt1dKs-RVORxx70d-176" value="Ja" style="text;strokeColor=none;align=center;fillColor=none;html=1;verticalAlign=middle;whiteSpace=wrap;rounded=0;" vertex="1" parent="WIyWlLk6GJQsqaUBKTNV-1">
          <mxGeometry x="1460.01" y="680" width="60" height="30" as="geometry" />
        </mxCell>
        <mxCell id="JPEAjt1dKs-RVORxx70d-257" value="" style="edgeStyle=orthogonalEdgeStyle;rounded=0;orthogonalLoop=1;jettySize=auto;html=1;" edge="1" parent="WIyWlLk6GJQsqaUBKTNV-1" source="JPEAjt1dKs-RVORxx70d-180" target="JPEAjt1dKs-RVORxx70d-157">
          <mxGeometry relative="1" as="geometry" />
        </mxCell>
        <mxCell id="JPEAjt1dKs-RVORxx70d-180" value="Können wir die Task reibungslos implementieren?" style="shape=hexagon;perimeter=hexagonPerimeter2;whiteSpace=wrap;html=1;fixedSize=1;strokeWidth=2" vertex="1" parent="WIyWlLk6GJQsqaUBKTNV-1">
          <mxGeometry x="1401.24" y="1156" width="207.5" height="40" as="geometry" />
        </mxCell>
        <mxCell id="JPEAjt1dKs-RVORxx70d-181" style="edgeStyle=orthogonalEdgeStyle;rounded=0;orthogonalLoop=1;jettySize=auto;html=1;entryX=0.5;entryY=0;entryDx=0;entryDy=0;" edge="1" source="JPEAjt1dKs-RVORxx70d-182" target="JPEAjt1dKs-RVORxx70d-185" parent="WIyWlLk6GJQsqaUBKTNV-1">
          <mxGeometry relative="1" as="geometry" />
        </mxCell>
        <mxCell id="JPEAjt1dKs-RVORxx70d-182" value="Prototyp erstellen" style="strokeWidth=2;html=1;shape=mxgraph.flowchart.terminator;whiteSpace=wrap;" vertex="1" parent="WIyWlLk6GJQsqaUBKTNV-1">
          <mxGeometry x="1706.58" y="1156" width="150" height="40" as="geometry" />
        </mxCell>
        <mxCell id="JPEAjt1dKs-RVORxx70d-183" style="edgeStyle=orthogonalEdgeStyle;rounded=0;orthogonalLoop=1;jettySize=auto;html=1;exitX=1;exitY=0.5;exitDx=0;exitDy=0;entryX=0;entryY=0.5;entryDx=0;entryDy=0;entryPerimeter=0;" edge="1" source="JPEAjt1dKs-RVORxx70d-180" target="JPEAjt1dKs-RVORxx70d-182" parent="WIyWlLk6GJQsqaUBKTNV-1">
          <mxGeometry relative="1" as="geometry" />
        </mxCell>
        <mxCell id="JPEAjt1dKs-RVORxx70d-184" value="&lt;div&gt;&lt;br&gt;&lt;/div&gt;Nein" style="text;html=1;align=center;verticalAlign=middle;resizable=0;points=[];autosize=1;strokeColor=none;fillColor=none;" vertex="1" parent="WIyWlLk6GJQsqaUBKTNV-1">
          <mxGeometry x="1620" y="1138" width="50" height="40" as="geometry" />
        </mxCell>
        <mxCell id="JPEAjt1dKs-RVORxx70d-259" style="edgeStyle=orthogonalEdgeStyle;rounded=0;orthogonalLoop=1;jettySize=auto;html=1;exitX=0;exitY=0.5;exitDx=0;exitDy=0;" edge="1" parent="WIyWlLk6GJQsqaUBKTNV-1" source="JPEAjt1dKs-RVORxx70d-185" target="JPEAjt1dKs-RVORxx70d-157">
          <mxGeometry relative="1" as="geometry" />
        </mxCell>
        <mxCell id="JPEAjt1dKs-RVORxx70d-185" value="Unit-Test ausführen" style="shape=hexagon;perimeter=hexagonPerimeter2;whiteSpace=wrap;html=1;fixedSize=1;strokeWidth=2" vertex="1" parent="WIyWlLk6GJQsqaUBKTNV-1">
          <mxGeometry x="1691.58" y="1237" width="180" height="30" as="geometry" />
        </mxCell>
        <mxCell id="JPEAjt1dKs-RVORxx70d-188" value="Fehlgeschlagen" style="text;html=1;align=center;verticalAlign=middle;resizable=0;points=[];autosize=1;strokeColor=none;fillColor=none;" vertex="1" parent="WIyWlLk6GJQsqaUBKTNV-1">
          <mxGeometry x="1880" y="1196" width="110" height="30" as="geometry" />
        </mxCell>
        <mxCell id="JPEAjt1dKs-RVORxx70d-189" value="Ja&lt;div&gt;&lt;br&gt;&lt;/div&gt;" style="text;strokeColor=none;align=center;fillColor=none;html=1;verticalAlign=middle;whiteSpace=wrap;rounded=0;" vertex="1" parent="WIyWlLk6GJQsqaUBKTNV-1">
          <mxGeometry x="1464.99" y="1211" width="60" height="30" as="geometry" />
        </mxCell>
        <mxCell id="JPEAjt1dKs-RVORxx70d-192" style="edgeStyle=orthogonalEdgeStyle;rounded=0;orthogonalLoop=1;jettySize=auto;html=1;exitX=0.5;exitY=1;exitDx=0;exitDy=0;exitPerimeter=0;entryX=0.5;entryY=0;entryDx=0;entryDy=0;entryPerimeter=0;" edge="1" source="JPEAjt1dKs-RVORxx70d-157" target="JPEAjt1dKs-RVORxx70d-158" parent="WIyWlLk6GJQsqaUBKTNV-1">
          <mxGeometry relative="1" as="geometry" />
        </mxCell>
        <mxCell id="JPEAjt1dKs-RVORxx70d-193" style="edgeStyle=orthogonalEdgeStyle;rounded=0;orthogonalLoop=1;jettySize=auto;html=1;entryX=0.5;entryY=0;entryDx=0;entryDy=0;" edge="1" source="JPEAjt1dKs-RVORxx70d-158" target="JPEAjt1dKs-RVORxx70d-159" parent="WIyWlLk6GJQsqaUBKTNV-1">
          <mxGeometry relative="1" as="geometry" />
        </mxCell>
        <mxCell id="JPEAjt1dKs-RVORxx70d-194" style="fontStyle=1;strokeColor=#003366;strokeWidth=1;html=1;exitX=1;exitY=0.5;exitDx=0;exitDy=0;entryX=1;entryY=0.5;entryDx=0;entryDy=0;entryPerimeter=0;fillColor=#000000;" edge="1" source="JPEAjt1dKs-RVORxx70d-159" target="JPEAjt1dKs-RVORxx70d-157" parent="WIyWlLk6GJQsqaUBKTNV-1">
          <mxGeometry relative="1" as="geometry">
            <mxPoint x="1605.49" y="1475" as="sourcePoint" />
            <mxPoint x="1590.49" y="1399" as="targetPoint" />
            <Array as="points">
              <mxPoint x="1655" y="1471" />
              <mxPoint x="1655.48" y="1305" />
            </Array>
          </mxGeometry>
        </mxCell>
        <mxCell id="JPEAjt1dKs-RVORxx70d-195" value="" style="edgeStyle=orthogonalEdgeStyle;rounded=0;orthogonalLoop=1;jettySize=auto;html=1;" edge="1" source="JPEAjt1dKs-RVORxx70d-196" target="JPEAjt1dKs-RVORxx70d-200" parent="WIyWlLk6GJQsqaUBKTNV-1">
          <mxGeometry relative="1" as="geometry" />
        </mxCell>
        <mxCell id="JPEAjt1dKs-RVORxx70d-196" value="Peer-Review des Codes" style="strokeWidth=2;html=1;shape=mxgraph.flowchart.terminator;whiteSpace=wrap;" vertex="1" parent="WIyWlLk6GJQsqaUBKTNV-1">
          <mxGeometry x="1425.49" y="1627" width="160" height="35" as="geometry" />
        </mxCell>
        <mxCell id="JPEAjt1dKs-RVORxx70d-197" value="Dokumentation erstellen" style="strokeWidth=2;html=1;shape=mxgraph.flowchart.terminator;whiteSpace=wrap;" vertex="1" parent="WIyWlLk6GJQsqaUBKTNV-1">
          <mxGeometry x="1425.47" y="1536" width="160" height="35" as="geometry" />
        </mxCell>
        <mxCell id="JPEAjt1dKs-RVORxx70d-198" style="edgeStyle=orthogonalEdgeStyle;rounded=0;orthogonalLoop=1;jettySize=auto;html=1;exitX=0.5;exitY=1;exitDx=0;exitDy=0;entryX=0.5;entryY=0;entryDx=0;entryDy=0;entryPerimeter=0;" edge="1" source="JPEAjt1dKs-RVORxx70d-159" target="JPEAjt1dKs-RVORxx70d-197" parent="WIyWlLk6GJQsqaUBKTNV-1">
          <mxGeometry relative="1" as="geometry" />
        </mxCell>
        <mxCell id="JPEAjt1dKs-RVORxx70d-199" style="edgeStyle=orthogonalEdgeStyle;rounded=0;orthogonalLoop=1;jettySize=auto;html=1;entryX=0.5;entryY=0;entryDx=0;entryDy=0;entryPerimeter=0;" edge="1" source="JPEAjt1dKs-RVORxx70d-197" target="JPEAjt1dKs-RVORxx70d-196" parent="WIyWlLk6GJQsqaUBKTNV-1">
          <mxGeometry relative="1" as="geometry" />
        </mxCell>
        <mxCell id="JPEAjt1dKs-RVORxx70d-200" value="Muss etwas geändert werden?&lt;div&gt;(Style, Fehler, Optimierung, usw.)&lt;/div&gt;" style="shape=hexagon;perimeter=hexagonPerimeter2;whiteSpace=wrap;html=1;fixedSize=1;strokeWidth=2" vertex="1" parent="WIyWlLk6GJQsqaUBKTNV-1">
          <mxGeometry x="1400.47" y="1717" width="210.01" height="40" as="geometry" />
        </mxCell>
        <mxCell id="JPEAjt1dKs-RVORxx70d-201" style="fontStyle=1;strokeColor=#003366;strokeWidth=1;html=1;exitX=0;exitY=0.5;exitDx=0;exitDy=0;entryX=0;entryY=0.5;entryDx=0;entryDy=0;entryPerimeter=0;" edge="1" parent="WIyWlLk6GJQsqaUBKTNV-1">
          <mxGeometry relative="1" as="geometry">
            <mxPoint x="1400.4700000000003" y="1736" as="sourcePoint" />
            <mxPoint x="1425.4800000000005" y="1304" as="targetPoint" />
            <Array as="points">
              <mxPoint x="1335" y="1736" />
              <mxPoint x="1335.48" y="1654" />
              <mxPoint x="1335.48" y="1304" />
            </Array>
          </mxGeometry>
        </mxCell>
        <mxCell id="JPEAjt1dKs-RVORxx70d-203" value="Ja&lt;div&gt;&lt;br&gt;&lt;/div&gt;" style="text;html=1;align=center;verticalAlign=middle;resizable=0;points=[];autosize=1;strokeColor=none;fillColor=none;" vertex="1" parent="WIyWlLk6GJQsqaUBKTNV-1">
          <mxGeometry x="1345.48" y="1732" width="40" height="40" as="geometry" />
        </mxCell>
        <mxCell id="JPEAjt1dKs-RVORxx70d-205" value="" style="edgeStyle=orthogonalEdgeStyle;rounded=0;orthogonalLoop=1;jettySize=auto;html=1;" edge="1" source="JPEAjt1dKs-RVORxx70d-206" target="JPEAjt1dKs-RVORxx70d-209" parent="WIyWlLk6GJQsqaUBKTNV-1">
          <mxGeometry relative="1" as="geometry" />
        </mxCell>
        <mxCell id="JPEAjt1dKs-RVORxx70d-206" value="Den Prozess dem Team vorstellen und besprechen" style="strokeWidth=2;html=1;shape=mxgraph.flowchart.terminator;whiteSpace=wrap;" vertex="1" parent="WIyWlLk6GJQsqaUBKTNV-1">
          <mxGeometry x="1415.49" y="1793" width="179.99" height="60" as="geometry" />
        </mxCell>
        <mxCell id="JPEAjt1dKs-RVORxx70d-207" style="edgeStyle=orthogonalEdgeStyle;rounded=0;orthogonalLoop=1;jettySize=auto;html=1;entryX=0.5;entryY=0;entryDx=0;entryDy=0;entryPerimeter=0;exitX=0.5;exitY=1;exitDx=0;exitDy=0;" edge="1" source="JPEAjt1dKs-RVORxx70d-200" target="JPEAjt1dKs-RVORxx70d-206" parent="WIyWlLk6GJQsqaUBKTNV-1">
          <mxGeometry relative="1" as="geometry">
            <mxPoint x="1505.4850000000001" y="1905" as="sourcePoint" />
          </mxGeometry>
        </mxCell>
        <mxCell id="JPEAjt1dKs-RVORxx70d-208" value="" style="edgeStyle=orthogonalEdgeStyle;rounded=0;orthogonalLoop=1;jettySize=auto;html=1;" edge="1" source="JPEAjt1dKs-RVORxx70d-209" target="JPEAjt1dKs-RVORxx70d-163" parent="WIyWlLk6GJQsqaUBKTNV-1">
          <mxGeometry relative="1" as="geometry" />
        </mxCell>
        <mxCell id="JPEAjt1dKs-RVORxx70d-209" value="Feedback geben" style="strokeWidth=2;html=1;shape=mxgraph.flowchart.terminator;whiteSpace=wrap;" vertex="1" parent="WIyWlLk6GJQsqaUBKTNV-1">
          <mxGeometry x="1424.55" y="1893" width="161.87" height="50" as="geometry" />
        </mxCell>
        <mxCell id="JPEAjt1dKs-RVORxx70d-216" style="edgeStyle=orthogonalEdgeStyle;rounded=0;orthogonalLoop=1;jettySize=auto;html=1;" edge="1" parent="WIyWlLk6GJQsqaUBKTNV-1" source="JPEAjt1dKs-RVORxx70d-213">
          <mxGeometry relative="1" as="geometry">
            <mxPoint x="1672.49" y="385" as="targetPoint" />
          </mxGeometry>
        </mxCell>
        <mxCell id="JPEAjt1dKs-RVORxx70d-225" value="" style="edgeStyle=orthogonalEdgeStyle;rounded=0;orthogonalLoop=1;jettySize=auto;html=1;" edge="1" parent="WIyWlLk6GJQsqaUBKTNV-1" source="JPEAjt1dKs-RVORxx70d-213" target="JPEAjt1dKs-RVORxx70d-145">
          <mxGeometry relative="1" as="geometry" />
        </mxCell>
        <mxCell id="JPEAjt1dKs-RVORxx70d-213" value="Passt die Idee zum Spiel?" style="shape=hexagon;perimeter=hexagonPerimeter2;whiteSpace=wrap;html=1;fixedSize=1;strokeWidth=2" vertex="1" parent="WIyWlLk6GJQsqaUBKTNV-1">
          <mxGeometry x="1407.5" y="365" width="194.98" height="40" as="geometry" />
        </mxCell>
        <mxCell id="JPEAjt1dKs-RVORxx70d-217" value="Nein&lt;div&gt;&lt;br&gt;&lt;/div&gt;" style="text;html=1;align=center;verticalAlign=middle;resizable=0;points=[];autosize=1;strokeColor=none;fillColor=none;" vertex="1" parent="WIyWlLk6GJQsqaUBKTNV-1">
          <mxGeometry x="1602.48" y="360" width="50" height="40" as="geometry" />
        </mxCell>
        <mxCell id="JPEAjt1dKs-RVORxx70d-218" value="Ja" style="text;html=1;align=center;verticalAlign=middle;resizable=0;points=[];autosize=1;strokeColor=none;fillColor=none;" vertex="1" parent="WIyWlLk6GJQsqaUBKTNV-1">
          <mxGeometry x="1464.99" y="415" width="40" height="30" as="geometry" />
        </mxCell>
        <mxCell id="JPEAjt1dKs-RVORxx70d-223" value="" style="ellipse;html=1;shape=endState;fillColor=strokeColor;" vertex="1" parent="WIyWlLk6GJQsqaUBKTNV-1">
          <mxGeometry x="1672.49" y="370" width="30" height="30" as="geometry" />
        </mxCell>
        <mxCell id="JPEAjt1dKs-RVORxx70d-229" style="edgeStyle=orthogonalEdgeStyle;rounded=0;orthogonalLoop=1;jettySize=auto;html=1;entryX=0;entryY=0.5;entryDx=0;entryDy=0;entryPerimeter=0;" edge="1" parent="WIyWlLk6GJQsqaUBKTNV-1" source="JPEAjt1dKs-RVORxx70d-172" target="JPEAjt1dKs-RVORxx70d-155">
          <mxGeometry relative="1" as="geometry">
            <Array as="points">
              <mxPoint x="1280" y="570" />
            </Array>
          </mxGeometry>
        </mxCell>
        <mxCell id="JPEAjt1dKs-RVORxx70d-234" value="" style="edgeStyle=orthogonalEdgeStyle;rounded=0;orthogonalLoop=1;jettySize=auto;html=1;" edge="1" parent="WIyWlLk6GJQsqaUBKTNV-1" source="JPEAjt1dKs-RVORxx70d-230" target="JPEAjt1dKs-RVORxx70d-233">
          <mxGeometry relative="1" as="geometry" />
        </mxCell>
        <mxCell id="JPEAjt1dKs-RVORxx70d-230" value="Anforderungen für Task als Gruppe definieren" style="strokeWidth=2;html=1;shape=mxgraph.flowchart.terminator;whiteSpace=wrap;" vertex="1" parent="WIyWlLk6GJQsqaUBKTNV-1">
          <mxGeometry x="1417.52" y="720" width="176.24" height="40" as="geometry" />
        </mxCell>
        <mxCell id="JPEAjt1dKs-RVORxx70d-236" value="" style="edgeStyle=orthogonalEdgeStyle;rounded=0;orthogonalLoop=1;jettySize=auto;html=1;" edge="1" parent="WIyWlLk6GJQsqaUBKTNV-1" source="JPEAjt1dKs-RVORxx70d-233" target="JPEAjt1dKs-RVORxx70d-235">
          <mxGeometry relative="1" as="geometry" />
        </mxCell>
        <mxCell id="JPEAjt1dKs-RVORxx70d-255" value="" style="edgeStyle=orthogonalEdgeStyle;rounded=0;orthogonalLoop=1;jettySize=auto;html=1;" edge="1" parent="WIyWlLk6GJQsqaUBKTNV-1" source="JPEAjt1dKs-RVORxx70d-233" target="JPEAjt1dKs-RVORxx70d-254">
          <mxGeometry relative="1" as="geometry" />
        </mxCell>
        <mxCell id="JPEAjt1dKs-RVORxx70d-233" value="Sind alle Mitglieder mit den Anforderungen einverstanden?" style="shape=hexagon;perimeter=hexagonPerimeter2;whiteSpace=wrap;html=1;fixedSize=1;strokeWidth=2" vertex="1" parent="WIyWlLk6GJQsqaUBKTNV-1">
          <mxGeometry x="1408.15" y="790" width="194.98" height="40" as="geometry" />
        </mxCell>
        <mxCell id="JPEAjt1dKs-RVORxx70d-235" value="Anforderung verbessern" style="strokeWidth=2;html=1;shape=mxgraph.flowchart.terminator;whiteSpace=wrap;" vertex="1" parent="WIyWlLk6GJQsqaUBKTNV-1">
          <mxGeometry x="1660" y="790" width="150" height="40" as="geometry" />
        </mxCell>
        <mxCell id="JPEAjt1dKs-RVORxx70d-237" style="edgeStyle=orthogonalEdgeStyle;rounded=0;orthogonalLoop=1;jettySize=auto;html=1;entryX=1;entryY=0.5;entryDx=0;entryDy=0;entryPerimeter=0;" edge="1" parent="WIyWlLk6GJQsqaUBKTNV-1" source="JPEAjt1dKs-RVORxx70d-235" target="JPEAjt1dKs-RVORxx70d-230">
          <mxGeometry relative="1" as="geometry">
            <Array as="points">
              <mxPoint x="1730" y="740" />
            </Array>
          </mxGeometry>
        </mxCell>
        <mxCell id="JPEAjt1dKs-RVORxx70d-252" value="" style="edgeStyle=orthogonalEdgeStyle;rounded=0;orthogonalLoop=1;jettySize=auto;html=1;" edge="1" parent="WIyWlLk6GJQsqaUBKTNV-1" source="JPEAjt1dKs-RVORxx70d-238" target="JPEAjt1dKs-RVORxx70d-251">
          <mxGeometry relative="1" as="geometry" />
        </mxCell>
        <mxCell id="JPEAjt1dKs-RVORxx70d-238" value="Task wird spezifiziert basierend auf den Anforderungen" style="strokeWidth=2;html=1;shape=mxgraph.flowchart.terminator;whiteSpace=wrap;" vertex="1" parent="WIyWlLk6GJQsqaUBKTNV-1">
          <mxGeometry x="1392.3700000000001" y="950" width="226.56" height="60" as="geometry" />
        </mxCell>
        <mxCell id="JPEAjt1dKs-RVORxx70d-240" value="Ja" style="text;strokeColor=none;align=center;fillColor=none;html=1;verticalAlign=middle;whiteSpace=wrap;rounded=0;" vertex="1" parent="WIyWlLk6GJQsqaUBKTNV-1">
          <mxGeometry x="1464.99" y="830" width="60" height="30" as="geometry" />
        </mxCell>
        <mxCell id="JPEAjt1dKs-RVORxx70d-241" value="Nein" style="text;strokeColor=none;align=center;fillColor=none;html=1;verticalAlign=middle;whiteSpace=wrap;rounded=0;" vertex="1" parent="WIyWlLk6GJQsqaUBKTNV-1">
          <mxGeometry x="1595" y="803" width="60" height="30" as="geometry" />
        </mxCell>
        <mxCell id="JPEAjt1dKs-RVORxx70d-244" style="edgeStyle=orthogonalEdgeStyle;rounded=0;orthogonalLoop=1;jettySize=auto;html=1;exitX=1;exitY=0.5;exitDx=0;exitDy=0;entryX=1;entryY=0.5;entryDx=0;entryDy=0;entryPerimeter=0;" edge="1" parent="WIyWlLk6GJQsqaUBKTNV-1" source="JPEAjt1dKs-RVORxx70d-185" target="JPEAjt1dKs-RVORxx70d-182">
          <mxGeometry relative="1" as="geometry" />
        </mxCell>
        <mxCell id="JPEAjt1dKs-RVORxx70d-249" value="" style="edgeStyle=orthogonalEdgeStyle;rounded=0;orthogonalLoop=1;jettySize=auto;html=1;" edge="1" parent="WIyWlLk6GJQsqaUBKTNV-1" source="JPEAjt1dKs-RVORxx70d-245" target="JPEAjt1dKs-RVORxx70d-180">
          <mxGeometry relative="1" as="geometry" />
        </mxCell>
        <mxCell id="JPEAjt1dKs-RVORxx70d-245" value="Tests entwerfen" style="strokeWidth=2;html=1;shape=mxgraph.flowchart.terminator;whiteSpace=wrap;" vertex="1" parent="WIyWlLk6GJQsqaUBKTNV-1">
          <mxGeometry x="1446.22" y="1102" width="117.52" height="27" as="geometry" />
        </mxCell>
        <mxCell id="JPEAjt1dKs-RVORxx70d-253" value="" style="edgeStyle=orthogonalEdgeStyle;rounded=0;orthogonalLoop=1;jettySize=auto;html=1;" edge="1" parent="WIyWlLk6GJQsqaUBKTNV-1" source="JPEAjt1dKs-RVORxx70d-251" target="JPEAjt1dKs-RVORxx70d-245">
          <mxGeometry relative="1" as="geometry" />
        </mxCell>
        <mxCell id="JPEAjt1dKs-RVORxx70d-251" value="Reihenfolge der Tasks bestimmen" style="strokeWidth=2;html=1;shape=mxgraph.flowchart.terminator;whiteSpace=wrap;" vertex="1" parent="WIyWlLk6GJQsqaUBKTNV-1">
          <mxGeometry x="1434.72" y="1030" width="141.86" height="43" as="geometry" />
        </mxCell>
        <mxCell id="JPEAjt1dKs-RVORxx70d-256" value="" style="edgeStyle=orthogonalEdgeStyle;rounded=0;orthogonalLoop=1;jettySize=auto;html=1;" edge="1" parent="WIyWlLk6GJQsqaUBKTNV-1" source="JPEAjt1dKs-RVORxx70d-254" target="JPEAjt1dKs-RVORxx70d-238">
          <mxGeometry relative="1" as="geometry" />
        </mxCell>
        <mxCell id="JPEAjt1dKs-RVORxx70d-254" value="Diagramme gegebenenfalls anpassen" style="strokeWidth=2;html=1;shape=mxgraph.flowchart.terminator;whiteSpace=wrap;" vertex="1" parent="WIyWlLk6GJQsqaUBKTNV-1">
          <mxGeometry x="1418.77" y="867" width="173.75" height="53" as="geometry" />
        </mxCell>
        <mxCell id="JPEAjt1dKs-RVORxx70d-260" value="Bestanden" style="text;html=1;align=center;verticalAlign=middle;resizable=0;points=[];autosize=1;strokeColor=none;fillColor=none;" vertex="1" parent="WIyWlLk6GJQsqaUBKTNV-1">
          <mxGeometry x="1570.01" y="1226" width="80" height="30" as="geometry" />
        </mxCell>
        <mxCell id="JPEAjt1dKs-RVORxx70d-261" value="Nein" style="text;html=1;align=center;verticalAlign=middle;resizable=0;points=[];autosize=1;strokeColor=none;fillColor=none;" vertex="1" parent="WIyWlLk6GJQsqaUBKTNV-1">
          <mxGeometry x="1495.48" y="1757" width="50" height="30" as="geometry" />
        </mxCell>
      </root>
    </mxGraphModel>
  </diagram>
</mxfile>
